<svg width="91" height="91" viewBox="0 0 91 91" fill="none" xmlns="http://www.w3.org/2000/svg">
<path d="M64.6479 76.895C60.9321 80.4971 56.875 79.9283 52.9696 78.2221C48.8367 76.4779 45.045 76.4021 40.6846 78.2221C35.2246 80.5729 32.3429 79.8904 29.0821 76.895C10.5788 57.8229 13.3088 28.7788 34.3146 27.7171C39.4333 27.9825 42.9975 30.5229 45.9929 30.7504C50.4671 29.8404 54.7517 27.2242 59.5292 27.5654C65.2546 28.0204 69.5771 30.2954 72.4208 34.3904C60.5908 41.4808 63.3967 57.0646 74.2408 61.425C72.0796 67.1125 69.2738 72.7621 64.61 76.9329L64.6479 76.895ZM45.6137 27.4896C45.045 19.0342 51.9079 12.0575 59.7946 11.375C60.8942 21.1575 50.9221 28.4375 45.6137 27.4896Z" fill="#224722"/>
</svg>
