<svg width="73" height="73" viewBox="0 0 73 73" fill="none" xmlns="http://www.w3.org/2000/svg">
<path d="M9.31966 22.8429C11.8504 17.8036 15.7326 13.5674 20.5326 10.6077C25.3325 7.64805 30.8609 6.08156 36.5 6.08333C44.6973 6.08333 51.5836 9.09763 56.8487 14.0069L48.1283 22.7304C44.9741 19.7161 40.9652 18.18 36.5 18.18C28.5765 18.18 21.8696 23.5334 19.4819 30.7208C18.8735 32.5458 18.5268 34.4925 18.5268 36.5C18.5268 38.5075 18.8735 40.4542 19.4819 42.2792C21.8726 49.4697 28.5765 54.82 36.5 54.82C40.591 54.82 44.0737 53.7402 46.7991 51.9152C48.379 50.8749 49.7316 49.5251 50.7752 47.9473C51.8187 46.3695 52.5314 44.5965 52.8702 42.7354H36.5V30.9703H65.1464C65.5053 32.9595 65.7 35.0339 65.7 37.1905C65.7 46.4554 62.3846 54.2542 56.6297 59.5467C51.5988 64.1944 44.7125 66.9167 36.5 66.9167C32.5052 66.9183 28.5492 66.1326 24.8582 64.6046C21.1671 63.0766 17.8134 60.8362 14.9886 58.0114C12.1638 55.1866 9.92342 51.8329 8.3954 48.1418C6.86739 44.4508 6.08173 40.4948 6.08333 36.5C6.08333 31.5908 7.25741 26.9492 9.31966 22.8429Z" fill="#224722"/>
</svg>
