<svg width="108" height="108" viewBox="0 0 108 108" fill="none" xmlns="http://www.w3.org/2000/svg">
<path d="M16.3665 15.453L55.6965 54.0225L16.659 92.9475C16.0219 92.1147 15.5263 91.1828 15.192 90.189C15.0165 89.0633 15.0165 87.9172 15.192 86.7915V20.5515C15.075 18.774 15.4845 16.9965 16.362 15.453M72.639 37.2015L59.8005 49.9185L20.9385 11.7C22.1985 11.2635 23.5485 11.142 24.867 11.349C26.937 11.916 28.9125 12.789 30.726 13.9275L65.898 33.39C68.184 34.6185 70.4115 35.91 72.639 37.2015ZM59.805 58.185L72.5805 70.731L63.3195 75.888L35.064 91.593C32.724 92.8845 30.375 94.1175 28.089 95.526C27.1111 96.1355 26.0142 96.5291 24.8718 96.6805C23.7294 96.8318 22.5679 96.7374 21.465 96.4035L59.805 58.185ZM92.925 54.0225C92.9603 55.5965 92.5637 57.1501 91.7783 58.5146C90.993 59.8791 89.8488 61.0024 88.47 61.7625L77.913 67.6215L64.0215 54.0225L77.9715 40.1895C81.549 42.183 85.068 44.1765 88.5825 46.053C89.9849 46.8356 91.1367 47.9996 91.9045 49.4101C92.6723 50.8207 93.0291 52.4199 92.925 54.0225Z" fill="#224722"/>
</svg>
