<svg width="340" height="316" viewBox="0 0 340 316" fill="none" xmlns="http://www.w3.org/2000/svg">
<path d="M86.0403 78.0432C108.755 57.3455 139.366 45.8428 171.137 46.0653C202.908 46.2879 233.238 58.2174 255.455 79.2297C256.601 80.3134 257.703 81.3967 258.804 82.5207C264.668 88.5412 269.808 95.137 274.135 102.192C272.392 101.653 270.671 101.133 268.906 100.654C268.885 100.634 268.841 100.633 268.776 100.612L268.732 100.612C266.88 100.092 265.049 99.5919 263.218 99.1326C262.761 99.0279 262.325 98.9031 261.889 98.7783C260.145 98.3602 258.401 97.942 256.635 97.5846C256.148 97.4465 255.653 97.3346 255.152 97.2495C253.822 96.9358 252.448 96.6624 251.096 96.4093C250.158 96.2201 249.177 96.0306 248.26 95.8618C246.864 95.6085 245.49 95.3756 244.093 95.1629C243.177 94.9941 242.304 94.8662 241.365 94.7582C240.187 94.547 238.987 94.3965 237.786 94.246C236.739 94.0763 235.691 93.9472 234.621 93.8383C233.158 93.6454 231.696 93.493 230.188 93.381C229.577 93.2956 228.944 93.2302 228.289 93.1851C226.695 93.0318 225.1 92.9192 223.484 92.8267C222.632 92.7598 221.78 92.693 220.884 92.6664C219.945 92.5989 219.027 92.5519 218.087 92.5251C216.339 92.4316 214.569 92.3989 212.799 92.3662C212.581 92.3444 212.361 92.3427 212.143 92.3617C210.438 92.3091 208.711 92.3173 207.005 92.346C205.847 92.3176 204.71 92.3502 203.594 92.4033C202.326 92.3944 201.08 92.4465 199.833 92.4987C199.111 92.5139 198.411 92.5496 197.733 92.6057C196.071 92.6753 194.408 92.7854 192.745 92.8955C191.892 92.9504 191.016 93.0255 190.163 93.121C188.938 93.1936 187.734 93.2866 186.552 93.4407C185.392 93.5341 184.232 93.668 183.093 93.8224C182.064 93.9167 181.035 94.0515 180.05 94.1867C178.736 94.3398 177.444 94.5134 176.152 94.7276C174.86 94.9418 173.524 95.1151 172.209 95.3495C171.605 95.4221 171.005 95.5263 170.413 95.6616C168.573 95.9734 166.732 96.3258 164.913 96.6987C162.634 97.1292 160.377 97.6208 158.14 98.1734C157.154 98.3897 156.189 98.6265 155.224 98.8633C147.366 100.818 139.642 103.217 132.096 106.048C131.021 106.426 129.966 106.825 128.912 107.264C127.748 107.682 126.606 108.161 125.463 108.64C124.519 109.019 123.552 109.418 122.607 109.838C121.552 110.277 120.497 110.756 119.464 111.216C115.684 112.894 111.968 114.675 108.316 116.597C107.392 117.078 106.49 117.538 105.588 118.039C104.994 118.34 104.444 118.64 103.871 118.961L101.098 120.525C97.3342 122.67 93.6562 124.937 90.0205 127.327L87.5744 128.954C87.1996 129.215 86.8469 129.456 86.4722 129.717C85.5026 130.36 84.5546 131.023 83.6282 131.707C82.2171 132.711 80.8059 133.716 79.438 134.762C79.0632 135.023 78.71 135.305 78.3569 135.587C77.4084 136.29 76.4595 137.034 75.5326 137.759C74.6058 138.483 73.6564 139.268 72.729 140.032C72.0669 140.555 71.4264 141.099 70.7638 141.662C68.6439 143.434 66.5673 145.246 64.5339 147.098C63.4951 148.045 62.4783 148.971 61.5049 149.939C60.9744 150.422 60.4661 150.885 59.9572 151.389C58.1876 153.122 56.4616 154.855 54.7789 156.63L54.7126 156.69C54.2922 157.113 53.8718 157.537 53.4729 157.98C52.3438 159.17 51.2584 160.36 50.1508 161.57C50.1121 161.604 50.0817 161.645 50.0619 161.691C49.8616 156.465 50.0555 151.23 50.6426 146.027L50.644 145.905C50.6441 145.883 50.652 145.862 50.6666 145.845C53.5918 120.134 66.1048 96.1494 86.0403 78.0432Z" fill="url(#paint0_linear_196_5)"/>
<path d="M64.5346 147.099C90.961 122.997 123.89 105.953 159.836 97.7696C195.782 89.5862 233.408 90.5687 268.732 100.613C268.794 100.609 268.855 100.623 268.907 100.655L268.95 100.655C270.693 101.154 272.414 101.674 274.135 102.193C279.289 110.598 283.21 119.607 285.795 128.983C287.674 135.757 288.865 142.683 289.352 149.668C287.778 149.698 286.225 149.748 284.65 149.818L284.606 149.818C284.584 149.838 284.54 149.837 284.497 149.837L284.475 149.817C233.939 151.937 185.98 171.379 149.876 204.381C134.296 218.571 121.225 234.953 111.148 252.919L111.169 252.939C111.125 252.979 111.102 253.04 111.058 253.08L111.08 253.101C111.057 253.145 111.027 253.186 110.991 253.222C110.075 254.86 109.18 256.517 108.33 258.176L84.1616 235.317C63.2781 215.619 51.1148 189.357 50.0627 161.691C51.5695 159.997 53.1196 158.344 54.7134 156.691C57.8351 153.405 61.1087 150.221 64.5346 147.099Z" fill="url(#paint1_linear_196_5)"/>
<path d="M149.875 204.38C151.356 203.031 152.859 201.702 154.361 200.414C155.333 199.568 156.304 198.763 157.298 197.938C161.273 194.637 165.376 191.5 169.609 188.526C170.69 187.742 171.77 186.999 172.872 186.276C174.194 185.352 175.538 184.488 176.904 183.605C178.182 182.761 179.46 181.959 180.781 181.156C181.09 180.955 181.42 180.775 181.728 180.574C182.807 179.912 183.93 179.25 185.031 178.608C190.757 175.276 196.66 172.216 202.718 169.437C203.905 168.877 205.091 168.358 206.256 167.859C206.389 167.787 206.529 167.726 206.674 167.679C207.882 167.139 209.047 166.64 210.255 166.141C210.607 165.981 211.003 165.822 211.398 165.662C212.694 165.123 213.99 164.625 215.286 164.127C216.758 163.548 218.251 162.991 219.744 162.473C221.281 161.916 222.839 161.379 224.398 160.842C225.846 160.365 227.317 159.908 228.743 159.452C230.279 158.975 231.793 158.519 233.306 158.104C234.82 157.688 236.355 157.252 237.89 156.857C239.425 156.462 240.961 156.067 242.473 155.692C243.986 155.317 245.565 154.963 247.121 154.628C248.677 154.294 250.211 153.98 251.767 153.687C254.857 153.079 257.967 152.533 261.077 152.067C264.187 151.602 267.34 151.218 270.471 150.855C275.133 150.38 279.801 150.034 284.475 149.816L284.496 149.837C284.54 149.837 284.54 149.837 284.562 149.817C284.568 149.812 284.576 149.808 284.584 149.809C284.592 149.809 284.6 149.812 284.606 149.817C286.181 149.747 287.777 149.697 289.352 149.668C289.765 155.616 289.664 161.588 289.051 167.525C289.031 167.584 289.023 167.646 289.027 167.708C286.324 193.779 273.764 218.152 253.575 236.503L167.929 314.546L108.329 258.175C109.18 256.517 110.052 254.879 110.989 253.262L110.99 253.222C111.026 253.186 111.056 253.145 111.079 253.101L111.057 253.08L111.124 253.02C111.137 253.01 111.148 252.998 111.156 252.984C111.163 252.97 111.167 252.955 111.168 252.939L111.147 252.919C111.212 252.824 111.264 252.722 111.303 252.615L111.906 251.584C113.514 248.754 115.209 245.966 117.012 243.198C118.194 241.319 119.462 239.44 120.752 237.582C123.088 234.209 125.577 230.857 128.196 227.547C128.839 226.76 129.439 225.973 130.104 225.207C131.679 223.29 133.276 221.393 134.938 219.517C135.537 218.811 136.179 218.105 136.821 217.44C137.973 216.149 139.191 214.879 140.386 213.629C143.419 210.464 146.582 207.381 149.875 204.38Z" fill="#045311"/>
<g style="mix-blend-mode:multiply" opacity="0.15">
<g style="mix-blend-mode:multiply" opacity="0.15">
<path d="M285.795 128.983C287.674 135.758 288.865 142.683 289.352 149.668C251.385 150.5 214.371 161.08 182.417 180.234C150.463 199.387 124.819 226.366 108.33 258.176C108.33 258.176 130.769 167.797 285.795 128.983Z" fill="black"/>
</g>
</g>
<g style="mix-blend-mode:multiply" opacity="0.15">
<g style="mix-blend-mode:multiply" opacity="0.15">
<path d="M258.804 82.5207C264.668 88.5412 269.808 95.137 274.135 102.192C238.208 90.9793 199.602 89.2399 162.602 97.167C125.602 105.094 91.6563 122.378 64.5339 147.098C59.4485 151.734 54.6186 156.604 50.0619 161.691C50.0619 161.691 110.848 64.6071 258.804 82.5207Z" fill="black"/>
</g>
</g>
<g style="mix-blend-mode:multiply" opacity="0.25">
<g style="mix-blend-mode:multiply" opacity="0.25">
<path d="M74.1982 137.006C76.1403 135.478 78.1711 133.868 80.29 132.178C82.4301 130.549 84.5517 128.616 87.0189 127.05C89.4434 125.403 91.9781 123.695 94.5568 121.948C97.0928 120.119 99.9739 118.658 102.792 116.973C105.657 115.204 108.625 113.586 111.683 112.123C114.783 110.623 117.906 109.102 121.116 107.542C124.39 106.164 127.729 104.849 131.133 103.513C134.473 102.075 138.027 101.085 141.517 99.9116L146.784 98.2032C148.561 97.6676 150.381 97.2542 152.179 96.7797C155.774 95.9525 159.351 94.8615 163.009 94.258C166.646 93.5934 170.283 92.9287 173.898 92.2842C180.991 91.2695 188.136 90.6015 195.303 90.2829C201.997 89.97 208.702 89.9696 215.394 90.2815C218.582 90.5474 221.683 90.8127 224.676 91.0569C226.161 91.189 227.623 91.3416 229.065 91.4734C230.483 91.666 231.902 91.899 233.255 92.1114C236.004 92.5366 238.601 92.9404 241.11 93.3435C243.619 93.7467 245.907 94.3921 248.11 94.8335C252.47 95.8788 256.286 96.6566 259.357 97.6726C265.086 99.3972 268.483 100.517 268.896 100.662C268.845 100.63 268.784 100.616 268.722 100.62C233.398 90.5759 195.771 89.5935 159.826 97.7768C123.879 105.96 90.9505 123.005 64.524 147.106C61.0981 150.228 57.8247 153.412 54.7029 156.698C55.1906 156.133 57.4509 153.592 61.1277 149.599C62.2343 148.47 63.2546 147.219 64.7355 145.87C66.0842 144.601 67.5656 143.211 69.1574 141.72C70.7493 140.229 72.4163 138.67 74.1982 137.006Z" fill="black"/>
</g>
</g>
<g style="mix-blend-mode:multiply" opacity="0.25">
<g style="mix-blend-mode:multiply" opacity="0.25">
<path d="M284.497 149.838L284.476 149.817C284.54 149.798 284.562 149.818 284.605 149.819C284.583 149.839 284.54 149.838 284.497 149.838Z" fill="black"/>
</g>
</g>
<g style="mix-blend-mode:multiply" opacity="0.25">
<g style="mix-blend-mode:multiply" opacity="0.25">
<path d="M111.066 253.087C111.1 253.036 111.13 252.982 111.155 252.926L111.177 252.946C111.154 253.007 111.11 253.047 111.087 253.108C111.064 253.152 111.034 253.193 110.998 253.229C111.017 253.181 111.04 253.133 111.066 253.087Z" fill="black"/>
</g>
</g>
<g style="mix-blend-mode:multiply" opacity="0.25">
<g style="mix-blend-mode:multiply" opacity="0.25">
<path d="M149.952 200.858C154.631 196.524 159.563 192.433 164.724 188.601C170.033 184.637 175.557 180.93 181.275 177.494C184.182 175.769 187.088 174.085 190.079 172.563L194.523 170.24C196.04 169.541 197.535 168.82 199.052 168.121C200.568 167.421 202.064 166.701 203.558 166.021C205.074 165.403 206.612 164.764 208.106 164.166C211.138 162.888 214.168 161.813 217.176 160.759C220.162 159.643 223.146 158.73 226.086 157.858C229.026 156.986 231.943 156.215 234.771 155.524C237.579 154.773 240.341 154.142 243.058 153.634C245.753 153.105 248.361 152.575 250.879 152.207C253.398 151.839 255.808 151.41 258.106 151.162C260.405 150.914 262.615 150.706 264.672 150.518C268.809 150.161 272.417 150.044 275.371 149.842C280.553 149.777 283.766 149.819 284.466 149.824C233.93 151.945 185.971 171.387 149.867 204.388C134.286 218.578 121.215 234.961 111.138 252.926C111.295 252.583 111.586 251.996 111.99 251.146C112.618 249.811 113.56 247.829 114.923 245.383C118.621 238.565 122.819 231.99 127.488 225.704C130.594 221.476 133.926 217.395 137.472 213.475C141.368 209.051 145.535 204.838 149.952 200.858Z" fill="black"/>
</g>
</g>
<g style="mix-blend-mode:screen" opacity="0.4">
<g style="mix-blend-mode:screen" opacity="0.4">
<path d="M64.534 147.098C90.9604 122.996 123.889 105.952 159.835 97.7686C195.781 89.5852 233.407 90.5678 268.732 100.612C267.881 100.464 264.434 99.8307 259.047 98.758C255.952 98.0057 252.066 97.5725 247.679 96.9533C243.293 96.2122 238.27 95.8525 232.854 95.3681C231.478 95.257 230.08 95.1254 228.683 94.9939C227.262 94.9636 225.82 94.9127 224.355 94.8822C221.405 94.76 218.368 94.6779 215.243 94.5545C209.01 94.7749 202.431 94.6679 195.645 95.3508C188.843 95.6484 181.942 96.8381 174.87 97.7424C171.364 98.4079 167.858 99.0732 164.33 99.7588C160.781 100.383 157.336 101.475 153.828 102.303C152.074 102.737 150.299 103.111 148.587 103.627L143.452 105.255C140.05 106.347 136.586 107.256 133.312 108.634C130.039 109.89 126.767 111.145 123.516 112.381C120.373 113.799 117.252 115.198 114.197 116.577C111.077 117.854 108.258 119.58 105.377 121.001C102.517 122.523 99.6379 123.822 97.0818 125.509C91.8624 128.699 86.7997 131.586 82.5211 134.723C80.3172 136.209 78.2009 137.655 76.1949 139.041C74.2533 140.53 72.4217 141.958 70.7006 143.285C68.9796 144.613 67.3687 145.88 65.8903 147.027C64.4565 148.092 63.195 149.362 62.0025 150.368C57.8929 153.992 55.2869 156.207 54.7127 156.69C57.8345 153.404 61.1081 150.22 64.534 147.098Z" fill="white"/>
</g>
</g>
<g style="mix-blend-mode:screen" opacity="0.4">
<g style="mix-blend-mode:screen" opacity="0.4">
<path d="M149.876 204.38C185.98 171.379 233.939 151.937 284.475 149.816C284.541 149.797 284.563 149.817 284.606 149.817C284.584 149.837 284.54 149.837 284.497 149.837C283.774 149.933 280.577 150.357 275.433 150.95C272.541 151.417 269.016 151.859 265.006 152.623C260.997 153.386 256.461 154.268 251.615 155.431C249.161 155.942 246.66 156.614 244.072 157.327C241.484 158.039 238.787 158.731 236.066 159.605C233.323 160.417 230.536 161.271 227.726 162.306C224.915 163.342 222.018 164.255 219.184 165.433C216.285 166.549 213.364 167.685 210.484 169.025C207.583 170.263 204.66 171.602 201.779 173.023C200.306 173.723 198.854 174.443 197.381 175.143L193.091 177.447C190.209 178.949 187.412 180.614 184.638 182.299C179.042 185.59 173.629 189.143 168.42 192.942C163.282 196.701 158.295 200.523 153.722 204.489C139.346 216.799 126.673 230.721 115.997 245.931C113.372 249.646 111.703 252.131 111.169 252.939C111.146 253 111.102 253.04 111.079 253.101C111.056 253.145 111.026 253.186 110.991 253.222C111.01 253.174 111.032 253.126 111.058 253.08C111.092 253.029 111.122 252.975 111.147 252.919C121.224 234.953 134.296 218.571 149.876 204.38Z" fill="white"/>
</g>
</g>
<g style="mix-blend-mode:multiply" opacity="0.25">
<g style="mix-blend-mode:multiply" opacity="0.25">
<path d="M86.0404 78.0432C108.756 57.3458 139.366 45.8428 171.137 46.0653C202.908 46.2879 233.238 58.2174 255.455 79.2297C255.455 79.2297 254.654 78.595 253.138 77.4072C251.644 76.1588 249.324 74.5392 246.42 72.4488C243.449 70.4188 239.76 68.0793 235.417 65.6135C230.507 62.9578 225.433 60.5711 220.221 58.4647C214.054 56.0497 207.688 54.0915 201.184 52.6082C193.961 51.0107 186.6 49.995 179.184 49.5723C171.273 49.1501 163.334 49.4345 155.476 50.4209C147.375 51.395 139.409 53.1763 131.714 55.7342C123.984 58.2271 116.553 61.4604 109.54 65.3814C102.751 69.1819 96.366 73.5749 90.4729 78.5004C84.9469 83.1468 79.868 88.2313 75.2941 93.6965C71.1993 98.6261 67.5399 103.854 64.3513 109.328C61.6435 113.995 59.2637 118.819 57.2267 123.769C55.4683 128.222 54.1092 132.19 53.1734 135.491C52.2376 138.793 51.5719 141.447 51.2224 143.251C50.9436 144.629 50.7586 145.48 50.6667 145.845C53.5919 120.134 66.1051 96.1496 86.0404 78.0432Z" fill="black"/>
</g>
</g>
<g style="mix-blend-mode:screen" opacity="0.4">
<g style="mix-blend-mode:screen" opacity="0.4">
<path d="M156.751 300.403L168.394 310.882L184.134 296.052C190.081 290.431 196.181 284.913 202.215 279.333C208.25 273.753 214.306 268.234 220.406 262.757C226.505 257.28 232.562 251.721 238.749 246.286L248.008 238.133L252.539 234.085C254.042 232.675 255.633 231.307 256.982 229.915C259.833 227.144 262.515 224.227 265.015 221.176C267.539 218.105 269.867 214.889 272.086 211.61C274.282 208.325 276.285 204.93 278.084 201.44C279.931 197.933 281.536 194.321 283.01 190.666C284.374 186.99 285.739 183.273 286.752 179.43C287.809 175.709 288.647 171.864 289.375 168.037C286.801 194.231 274.312 218.67 254.123 237.021L168.476 315.064L113.885 263.43C123.654 271.438 133.136 279.668 142.617 287.938L156.751 300.403Z" fill="white"/>
</g>
</g>
<defs>
<linearGradient id="paint0_linear_196_5" x1="62.9472" y1="124.897" x2="230.687" y2="113.765" gradientUnits="userSpaceOnUse">
<stop stop-color="#55AB12"/>
<stop offset="1" stop-color="#226B01"/>
</linearGradient>
<linearGradient id="paint1_linear_196_5" x1="92.1396" y1="225.658" x2="227.062" y2="83.0076" gradientUnits="userSpaceOnUse">
<stop stop-color="#53AB08"/>
<stop offset="1" stop-color="#214F04"/>
</linearGradient>
</defs>
</svg>
