<svg width="201" height="68" viewBox="0 0 201 68" fill="none" xmlns="http://www.w3.org/2000/svg">
<path d="M18.4517 58.6392C15.1705 58.6392 12.3366 57.9574 9.95028 56.5938C7.57813 55.2159 5.75284 53.2699 4.47443 50.7557C3.19602 48.2273 2.55682 45.2514 2.55682 41.8281C2.55682 38.4616 3.19602 35.5071 4.47443 32.9645C5.76705 30.4077 7.57102 28.419 9.88636 26.9986C12.2017 25.5639 14.9219 24.8466 18.0469 24.8466C20.0639 24.8466 21.9673 25.1733 23.7571 25.8267C25.5611 26.4659 27.152 27.4602 28.5298 28.8097C29.9219 30.1591 31.0156 31.8778 31.8111 33.9659C32.6065 36.0398 33.0043 38.5114 33.0043 41.3807V43.7457H6.17898V38.5469H25.6108C25.5966 37.0696 25.277 35.7557 24.652 34.6051C24.027 33.4403 23.1534 32.5241 22.0312 31.8565C20.9233 31.1889 19.6307 30.8551 18.1534 30.8551C16.5767 30.8551 15.1918 31.2386 13.9986 32.0057C12.8054 32.7585 11.875 33.7528 11.2074 34.9886C10.554 36.2102 10.2202 37.5526 10.206 39.0156V43.554C10.206 45.4574 10.554 47.0909 11.25 48.4545C11.946 49.804 12.919 50.8409 14.169 51.5653C15.419 52.2756 16.8821 52.6307 18.5582 52.6307C19.6804 52.6307 20.696 52.4744 21.6051 52.1619C22.5142 51.8352 23.3026 51.3594 23.9702 50.7344C24.6378 50.1094 25.142 49.3352 25.483 48.4119L32.6847 49.2216C32.2301 51.125 31.3636 52.7869 30.0852 54.2074C28.821 55.6136 27.2017 56.7074 25.2273 57.4886C23.2528 58.2557 20.9943 58.6392 18.4517 58.6392Z" fill="#045311"/>
<path d="M182.452 58.6392C179.17 58.6392 176.337 57.9574 173.95 56.5938C171.578 55.2159 169.753 53.2699 168.474 50.7557C167.196 48.2273 166.557 45.2514 166.557 41.8281C166.557 38.4616 167.196 35.5071 168.474 32.9645C169.767 30.4077 171.571 28.419 173.886 26.9986C176.202 25.5639 178.922 24.8466 182.047 24.8466C184.064 24.8466 185.967 25.1733 187.757 25.8267C189.561 26.4659 191.152 27.4602 192.53 28.8097C193.922 30.1591 195.016 31.8778 195.811 33.9659C196.607 36.0398 197.004 38.5114 197.004 41.3807V43.7457H170.179V38.5469H189.611C189.597 37.0696 189.277 35.7557 188.652 34.6051C188.027 33.4403 187.153 32.5241 186.031 31.8565C184.923 31.1889 183.631 30.8551 182.153 30.8551C180.577 30.8551 179.192 31.2386 177.999 32.0057C176.805 32.7585 175.875 33.7528 175.207 34.9886C174.554 36.2102 174.22 37.5526 174.206 39.0156V43.554C174.206 45.4574 174.554 47.0909 175.25 48.4545C175.946 49.804 176.919 50.8409 178.169 51.5653C179.419 52.2756 180.882 52.6307 182.558 52.6307C183.68 52.6307 184.696 52.4744 185.605 52.1619C186.514 51.8352 187.303 51.3594 187.97 50.7344C188.638 50.1094 189.142 49.3352 189.483 48.4119L196.685 49.2216C196.23 51.125 195.364 52.7869 194.085 54.2074C192.821 55.6136 191.202 56.7074 189.227 57.4886C187.253 58.2557 184.994 58.6392 182.452 58.6392Z" fill="#045311"/>
<path d="M50.2386 58.6392C46.9716 58.6392 44.1662 57.9219 41.8224 56.4872C39.4929 55.0526 37.696 53.071 36.4318 50.5426C35.1818 48 34.5568 45.0739 34.5568 41.7642C34.5568 38.4403 35.196 35.5071 36.4744 32.9645C37.7528 30.4077 39.5568 28.419 41.8864 26.9986C44.2301 25.5639 47 24.8466 50.196 24.8466C52.8523 24.8466 55.2031 25.3366 57.2486 26.3168C59.3082 27.2827 60.9489 28.6534 62.1705 30.429C63.392 32.1903 64.0881 34.25 64.2585 36.608H56.8864C56.5881 35.0312 55.8778 33.7173 54.7557 32.6662C53.6477 31.6009 52.1634 31.0682 50.3026 31.0682C48.7259 31.0682 47.3409 31.4943 46.1477 32.3466C44.9545 33.1847 44.0241 34.392 43.3565 35.9688C42.7031 37.5455 42.3764 39.4347 42.3764 41.6364C42.3764 43.8665 42.7031 45.7841 43.3565 47.3892C44.0099 48.9801 44.9261 50.2088 46.1051 51.0753C47.2983 51.9276 48.6974 52.3537 50.3026 52.3537C51.4389 52.3537 52.4545 52.1406 53.3494 51.7145C54.2585 51.2741 55.0185 50.642 55.6293 49.8182C56.2401 48.9943 56.6591 47.9929 56.8864 46.8139H64.2585C64.0739 49.1293 63.392 51.1818 62.2131 52.9716C61.0341 54.7472 59.429 56.1392 57.3977 57.1477C55.3665 58.142 52.9801 58.6392 50.2386 58.6392Z" fill="#045311"/>
<path d="M80.2386 58.6392C77.0426 58.6392 74.2727 57.9361 71.929 56.5298C69.5852 55.1236 67.767 53.1562 66.4744 50.6278C65.196 48.0994 64.5568 45.1449 64.5568 41.7642C64.5568 38.3835 65.196 35.4219 66.4744 32.8793C67.767 30.3366 69.5852 28.3622 71.929 26.956C74.2727 25.5497 77.0426 24.8466 80.2386 24.8466C83.4347 24.8466 86.2045 25.5497 88.5483 26.956C90.892 28.3622 92.7031 30.3366 93.9815 32.8793C95.2741 35.4219 95.9205 38.3835 95.9205 41.7642C95.9205 45.1449 95.2741 48.0994 93.9815 50.6278C92.7031 53.1562 90.892 55.1236 88.5483 56.5298C86.2045 57.9361 83.4347 58.6392 80.2386 58.6392ZM80.2812 52.4602C82.0142 52.4602 83.4631 51.9844 84.6278 51.0327C85.7926 50.0668 86.6591 48.7741 87.2273 47.1548C87.8097 45.5355 88.1009 43.7315 88.1009 41.7429C88.1009 39.7401 87.8097 37.929 87.2273 36.3097C86.6591 34.6761 85.7926 33.3764 84.6278 32.4105C83.4631 31.4446 82.0142 30.9616 80.2812 30.9616C78.5057 30.9616 77.0284 31.4446 75.8494 32.4105C74.6847 33.3764 73.8111 34.6761 73.2287 36.3097C72.6605 37.929 72.3764 39.7401 72.3764 41.7429C72.3764 43.7315 72.6605 45.5355 73.2287 47.1548C73.8111 48.7741 74.6847 50.0668 75.8494 51.0327C77.0284 51.9844 78.5057 52.4602 80.2812 52.4602Z" fill="#045311"/>
<path d="M127.196 26.2727L115.541 59H107.018L95.3636 26.2727H103.588L111.109 50.5838H111.45L118.993 26.2727H127.196Z" fill="#045311"/>
<path d="M130.963 59V26.2727H138.676V59H130.963ZM134.841 21.6278C133.619 21.6278 132.568 21.223 131.688 20.4134C130.807 19.5895 130.366 18.6023 130.366 17.4517C130.366 16.2869 130.807 15.2997 131.688 14.4901C132.568 13.6662 133.619 13.2543 134.841 13.2543C136.077 13.2543 137.128 13.6662 137.994 14.4901C138.875 15.2997 139.315 16.2869 139.315 17.4517C139.315 18.6023 138.875 19.5895 137.994 20.4134C137.128 21.223 136.077 21.6278 134.841 21.6278Z" fill="#045311"/>
<path d="M162.676 15.3636V59H154.963V15.3636H162.676Z" fill="#045311"/>
<path d="M150.676 15.3636V59H142.963V15.3636H150.676Z" fill="#045311"/>
</svg>
