<svg width="202" height="68" viewBox="0 0 202 68" fill="none" xmlns="http://www.w3.org/2000/svg">
<path d="M18.3239 58.6818C15.1705 58.6818 12.4503 57.9858 10.1634 56.5938C7.89062 55.1875 6.13636 53.2273 4.90057 50.7131C3.67898 48.1847 3.06818 45.2443 3.06818 41.892C3.06818 38.5398 3.67898 35.5852 4.90057 33.0284C6.13636 30.4574 7.85511 28.4545 10.0568 27.0199C12.2727 25.571 14.858 24.8466 17.8125 24.8466C19.517 24.8466 21.2003 25.1307 22.8622 25.6989C24.5241 26.267 26.0369 27.1903 27.4006 28.4688C28.7642 29.733 29.8509 31.4091 30.6605 33.4972C31.4702 35.5852 31.875 38.1562 31.875 41.2102V43.3409H6.64773V38.9943H26.7614C26.7614 37.1477 26.392 35.5 25.6534 34.0511C24.929 32.6023 23.892 31.4588 22.5426 30.6207C21.2074 29.7827 19.6307 29.3636 17.8125 29.3636C15.8097 29.3636 14.0767 29.8608 12.6136 30.8551C11.1648 31.8352 10.0497 33.1136 9.26847 34.6903C8.48722 36.267 8.09659 37.9574 8.09659 39.7614V42.6591C8.09659 45.1307 8.52273 47.2259 9.375 48.9446C10.2415 50.6491 11.4418 51.9489 12.9759 52.8438C14.5099 53.7244 16.2926 54.1648 18.3239 54.1648C19.6449 54.1648 20.8381 53.9801 21.9034 53.6108C22.983 53.2273 23.9134 52.6591 24.6946 51.9062C25.4759 51.1392 26.0795 50.1875 26.5057 49.0511L31.3636 50.4148C30.8523 52.0625 29.9929 53.5114 28.7855 54.7614C27.5781 55.9972 26.0866 56.9631 24.3111 57.6591C22.5355 58.3409 20.5398 58.6818 18.3239 58.6818Z" fill="#045311"/>
<path d="M183.324 58.6818C180.17 58.6818 177.45 57.9858 175.163 56.5938C172.891 55.1875 171.136 53.2273 169.901 50.7131C168.679 48.1847 168.068 45.2443 168.068 41.892C168.068 38.5398 168.679 35.5852 169.901 33.0284C171.136 30.4574 172.855 28.4545 175.057 27.0199C177.273 25.571 179.858 24.8466 182.812 24.8466C184.517 24.8466 186.2 25.1307 187.862 25.6989C189.524 26.267 191.037 27.1903 192.401 28.4688C193.764 29.733 194.851 31.4091 195.661 33.4972C196.47 35.5852 196.875 38.1562 196.875 41.2102V43.3409H171.648V38.9943H191.761C191.761 37.1477 191.392 35.5 190.653 34.0511C189.929 32.6023 188.892 31.4588 187.543 30.6207C186.207 29.7827 184.631 29.3636 182.812 29.3636C180.81 29.3636 179.077 29.8608 177.614 30.8551C176.165 31.8352 175.05 33.1136 174.268 34.6903C173.487 36.267 173.097 37.9574 173.097 39.7614V42.6591C173.097 45.1307 173.523 47.2259 174.375 48.9446C175.241 50.6491 176.442 51.9489 177.976 52.8438C179.51 53.7244 181.293 54.1648 183.324 54.1648C184.645 54.1648 185.838 53.9801 186.903 53.6108C187.983 53.2273 188.913 52.6591 189.695 51.9062C190.476 51.1392 191.08 50.1875 191.506 49.0511L196.364 50.4148C195.852 52.0625 194.993 53.5114 193.786 54.7614C192.578 55.9972 191.087 56.9631 189.311 57.6591C187.536 58.3409 185.54 58.6818 183.324 58.6818Z" fill="#045311"/>
<path d="M49.8977 58.6818C46.8295 58.6818 44.1875 57.9574 41.9716 56.5085C39.7557 55.0597 38.0511 53.0639 36.858 50.5213C35.6648 47.9787 35.0682 45.0739 35.0682 41.8068C35.0682 38.483 35.679 35.5497 36.9006 33.0071C38.1364 30.4503 39.8551 28.4545 42.0568 27.0199C44.2727 25.571 46.858 24.8466 49.8125 24.8466C52.1136 24.8466 54.1875 25.2727 56.0341 26.125C57.8807 26.9773 59.3935 28.1705 60.5724 29.7045C61.7514 31.2386 62.483 33.0284 62.767 35.0739H57.7386C57.3551 33.5824 56.5028 32.2614 55.1818 31.1108C53.875 29.946 52.1136 29.3636 49.8977 29.3636C47.9375 29.3636 46.2188 29.875 44.7415 30.8977C43.2784 31.9062 42.1349 33.3338 41.3111 35.1804C40.5014 37.0128 40.0966 39.1648 40.0966 41.6364C40.0966 44.1648 40.4943 46.3665 41.2898 48.2415C42.0994 50.1165 43.2358 51.5724 44.6989 52.6094C46.1761 53.6463 47.9091 54.1648 49.8977 54.1648C51.2045 54.1648 52.3906 53.9375 53.456 53.483C54.5213 53.0284 55.4233 52.375 56.1619 51.5227C56.9006 50.6705 57.4261 49.6477 57.7386 48.4545H62.767C62.483 50.3864 61.7798 52.1264 60.6577 53.6747C59.5497 55.2088 58.0795 56.4304 56.2472 57.3395C54.429 58.2344 52.3125 58.6818 49.8977 58.6818Z" fill="#045311"/>
<path d="M79.8977 58.6818C76.9432 58.6818 74.3509 57.9787 72.1207 56.5724C69.9048 55.1662 68.1719 53.1989 66.9219 50.6705C65.6861 48.142 65.0682 45.1875 65.0682 41.8068C65.0682 38.3977 65.6861 35.4219 66.9219 32.8793C68.1719 30.3366 69.9048 28.3622 72.1207 26.956C74.3509 25.5497 76.9432 24.8466 79.8977 24.8466C82.8523 24.8466 85.4375 25.5497 87.6534 26.956C89.8835 28.3622 91.6165 30.3366 92.8523 32.8793C94.1023 35.4219 94.7273 38.3977 94.7273 41.8068C94.7273 45.1875 94.1023 48.142 92.8523 50.6705C91.6165 53.1989 89.8835 55.1662 87.6534 56.5724C85.4375 57.9787 82.8523 58.6818 79.8977 58.6818ZM79.8977 54.1648C82.142 54.1648 83.9886 53.5895 85.4375 52.4389C86.8864 51.2884 87.9588 49.7756 88.6548 47.9006C89.3509 46.0256 89.6989 43.9943 89.6989 41.8068C89.6989 39.6193 89.3509 37.581 88.6548 35.6918C87.9588 33.8026 86.8864 32.2756 85.4375 31.1108C83.9886 29.946 82.142 29.3636 79.8977 29.3636C77.6534 29.3636 75.8068 29.946 74.358 31.1108C72.9091 32.2756 71.8366 33.8026 71.1406 35.6918C70.4446 37.581 70.0966 39.6193 70.0966 41.8068C70.0966 43.9943 70.4446 46.0256 71.1406 47.9006C71.8366 49.7756 72.9091 51.2884 74.358 52.4389C75.8068 53.5895 77.6534 54.1648 79.8977 54.1648Z" fill="#045311"/>
<path d="M126.364 26.2727L114.261 59H109.148L97.0455 26.2727H102.5L111.534 52.3523H111.875L120.909 26.2727H126.364Z" fill="#045311"/>
<path d="M132.602 59V26.2727H137.631V59H132.602ZM135.159 20.8182C134.179 20.8182 133.334 20.4844 132.624 19.8168C131.928 19.1491 131.58 18.3466 131.58 17.4091C131.58 16.4716 131.928 15.669 132.624 15.0014C133.334 14.3338 134.179 14 135.159 14C136.139 14 136.977 14.3338 137.673 15.0014C138.384 15.669 138.739 16.4716 138.739 17.4091C138.739 18.3466 138.384 19.1491 137.673 19.8168C136.977 20.4844 136.139 20.8182 135.159 20.8182Z" fill="#045311"/>
<path d="M163.631 15.3636V59H158.602V15.3636H163.631Z" fill="#045311"/>
<path d="M149.631 15.3636V59H144.602V15.3636H149.631Z" fill="#045311"/>
</svg>
