<svg width="22" height="21" viewBox="0 0 22 21" fill="none" xmlns="http://www.w3.org/2000/svg">
<path d="M4.875 19.25C4.39375 19.25 3.98163 19.0785 3.63863 18.7355C3.29563 18.3925 3.12442 17.9807 3.125 17.5V5.25C3.125 4.76875 3.2965 4.35662 3.6395 4.01362C3.9825 3.67062 4.39433 3.49942 4.875 3.5H5.75V1.75H7.5V3.5H14.5V1.75H16.25V3.5H17.125C17.6063 3.5 18.0184 3.6715 18.3614 4.0145C18.7044 4.3575 18.8756 4.76933 18.875 5.25V17.5C18.875 17.9813 18.7035 18.3934 18.3605 18.7364C18.0175 19.0794 17.6057 19.2506 17.125 19.25H4.875ZM4.875 17.5H17.125V8.75H4.875V17.5ZM4.875 7H17.125V5.25H4.875V7ZM11 12.25C10.7521 12.25 10.5441 12.166 10.3761 11.998C10.2081 11.83 10.1244 11.6223 10.125 11.375C10.125 11.1271 10.209 10.9191 10.377 10.7511C10.545 10.5831 10.7527 10.4994 11 10.5C11.2479 10.5 11.4559 10.584 11.6239 10.752C11.7919 10.92 11.8756 11.1277 11.875 11.375C11.875 11.6229 11.791 11.8309 11.623 11.9989C11.455 12.1669 11.2473 12.2506 11 12.25ZM7.5 12.25C7.25209 12.25 7.04413 12.166 6.87613 11.998C6.70813 11.83 6.62442 11.6223 6.625 11.375C6.625 11.1271 6.709 10.9191 6.877 10.7511C7.045 10.5831 7.25267 10.4994 7.5 10.5C7.74792 10.5 7.95588 10.584 8.12388 10.752C8.29188 10.92 8.37559 11.1277 8.375 11.375C8.375 11.6229 8.291 11.8309 8.123 11.9989C7.955 12.1669 7.74733 12.2506 7.5 12.25ZM14.5 12.25C14.2521 12.25 14.0441 12.166 13.8761 11.998C13.7081 11.83 13.6244 11.6223 13.625 11.375C13.625 11.1271 13.709 10.9191 13.877 10.7511C14.045 10.5831 14.2527 10.4994 14.5 10.5C14.7479 10.5 14.9559 10.584 15.1239 10.752C15.2919 10.92 15.3756 11.1277 15.375 11.375C15.375 11.6229 15.291 11.8309 15.123 11.9989C14.955 12.1669 14.7473 12.2506 14.5 12.25ZM11 15.75C10.7521 15.75 10.5441 15.666 10.3761 15.498C10.2081 15.33 10.1244 15.1223 10.125 14.875C10.125 14.6271 10.209 14.4191 10.377 14.2511C10.545 14.0831 10.7527 13.9994 11 14C11.2479 14 11.4559 14.084 11.6239 14.252C11.7919 14.42 11.8756 14.6277 11.875 14.875C11.875 15.1229 11.791 15.3309 11.623 15.4989C11.455 15.6669 11.2473 15.7506 11 15.75ZM7.5 15.75C7.25209 15.75 7.04413 15.666 6.87613 15.498C6.70813 15.33 6.62442 15.1223 6.625 14.875C6.625 14.6271 6.709 14.4191 6.877 14.2511C7.045 14.0831 7.25267 13.9994 7.5 14C7.74792 14 7.95588 14.084 8.12388 14.252C8.29188 14.42 8.37559 14.6277 8.375 14.875C8.375 15.1229 8.291 15.3309 8.123 15.4989C7.955 15.6669 7.74733 15.7506 7.5 15.75ZM14.5 15.75C14.2521 15.75 14.0441 15.666 13.8761 15.498C13.7081 15.33 13.6244 15.1223 13.625 14.875C13.625 14.6271 13.709 14.4191 13.877 14.2511C14.045 14.0831 14.2527 13.9994 14.5 14C14.7479 14 14.9559 14.084 15.1239 14.252C15.2919 14.42 15.3756 14.6277 15.375 14.875C15.375 15.1229 15.291 15.3309 15.123 15.4989C14.955 15.6669 14.7473 15.7506 14.5 15.75Z" fill="#39434F"/>
</svg>
