<svg width="20" height="20" viewBox="0 0 20 20" fill="none" xmlns="http://www.w3.org/2000/svg">
<path d="M9.99984 1.66667C8.90549 1.66667 7.82185 1.88222 6.81081 2.30101C5.79976 2.7198 4.8811 3.33363 4.10728 4.10745C2.54448 5.67025 1.6665 7.78987 1.6665 10C1.6665 13.6833 4.05817 16.8083 7.3665 17.9167C7.78317 17.9833 7.9165 17.725 7.9165 17.5V16.0917C5.60817 16.5917 5.1165 14.975 5.1165 14.975C4.73317 14.0083 4.1915 13.75 4.1915 13.75C3.43317 13.2333 4.24984 13.25 4.24984 13.25C5.08317 13.3083 5.52484 14.1083 5.52484 14.1083C6.24984 15.375 7.47484 15 7.94984 14.8C8.02484 14.2583 8.2415 13.8917 8.47484 13.6833C6.62484 13.475 4.68317 12.7583 4.68317 9.58334C4.68317 8.65834 4.99984 7.91667 5.5415 7.325C5.45817 7.11667 5.1665 6.25001 5.62484 5.12501C5.62484 5.12501 6.32484 4.90001 7.9165 5.97501C8.57484 5.79167 9.2915 5.70001 9.99984 5.70001C10.7082 5.70001 11.4248 5.79167 12.0832 5.97501C13.6748 4.90001 14.3748 5.12501 14.3748 5.12501C14.8332 6.25001 14.5415 7.11667 14.4582 7.325C14.9998 7.91667 15.3165 8.65834 15.3165 9.58334C15.3165 12.7667 13.3665 13.4667 11.5082 13.675C11.8082 13.9333 12.0832 14.4417 12.0832 15.2167V17.5C12.0832 17.725 12.2165 17.9917 12.6415 17.9167C15.9498 16.8 18.3332 13.6833 18.3332 10C18.3332 8.90566 18.1176 7.82202 17.6988 6.81098C17.28 5.79993 16.6662 4.88127 15.8924 4.10745C15.1186 3.33363 14.1999 2.7198 13.1889 2.30101C12.1778 1.88222 11.0942 1.66667 9.99984 1.66667Z" fill="#222222"/>
</svg>
