<svg width="76" height="73" viewBox="0 0 76 73" fill="none" xmlns="http://www.w3.org/2000/svg">
<path d="M37.6458 72.914C19.6371 72.914 0.208344 61.6182 0.208344 36.832C0.208344 12.0458 19.6371 0.75 37.6458 0.75C47.6507 0.75 56.881 4.04192 63.723 10.0448C71.146 16.6287 75.0833 25.9235 75.0833 36.832C75.0833 47.7405 71.146 56.9708 63.723 63.5546C56.881 69.5575 47.5861 72.914 37.6458 72.914Z" fill="url(#paint0_radial_17_39)"/>
<path d="M68.5576 15.3829C71.998 20.934 73.7924 27.5436 73.7924 34.8956C73.7924 45.8041 69.855 55.0344 62.4321 61.6182C55.59 67.6211 46.2952 70.9776 36.3549 70.9776C24.6976 70.9776 12.4724 66.2334 5.25595 56.1704C12.2013 67.5695 25.2656 72.914 37.6458 72.914C47.5861 72.914 56.881 69.5575 63.723 63.5546C71.146 56.9708 75.0833 47.7405 75.0833 36.832C75.0833 28.6087 72.8435 21.3019 68.5576 15.3829Z" fill="#EB8F00"/>
<path d="M62.2384 42.8414C61.3347 41.2148 59.3725 40.4983 57.6297 41.1631C51.8205 42.9705 44.7202 43.6353 37.5684 43.6418C30.6683 43.6676 23.8004 42.7058 17.1779 40.7694C15.4351 40.1046 13.4728 40.821 12.5692 42.4476C11.6913 44.0678 12.3303 45.9461 13.0662 47.5662C17.2489 56.6803 26.35 62.1281 37.5167 62.1604H37.62C48.7867 62.1604 57.591 57.0612 61.7414 47.96C62.4772 46.3398 63.1163 44.4615 62.2384 42.8414Z" fill="white"/>
<path d="M28.2219 32.9527L28.1251 32.8236L27.8476 32.4686L27.5055 32.1007C27.3634 31.9393 27.1956 31.7844 27.0343 31.6166C26.8729 31.4488 26.6728 31.2874 26.4921 31.1518C26.3242 31.0227 26.1435 30.9001 25.9499 30.8033C25.8208 30.7323 25.6788 30.6742 25.5303 30.6419C25.4851 30.6355 25.4399 30.6355 25.3948 30.6419C25.3948 30.6419 25.356 30.6419 25.3367 30.6419H25.285H25.4593H25.1043C25.072 30.6419 25.0075 30.6419 25.1043 30.6419H25.1559H25.0849C24.9365 30.6742 24.7945 30.7258 24.6589 30.8033C24.4717 30.9066 24.2845 31.0227 24.1167 31.1518C23.9295 31.2938 23.7488 31.4488 23.581 31.6166C23.2389 31.9458 22.9355 32.262 22.7419 32.5138L22.4062 32.9011L22.2577 33.0753C21.3283 34.1146 19.7598 34.2824 18.6302 33.4691C17.9073 32.9656 17.5393 32.0942 17.6813 31.2228C17.6813 31.2228 17.7265 30.9646 17.8492 30.5064C18.0428 29.8544 18.3139 29.2219 18.656 28.628C19.2047 27.6598 19.947 26.8142 20.8377 26.143C21.4251 25.6911 22.077 25.3297 22.7741 25.0779C22.9678 25.0005 23.1679 24.9424 23.368 24.8907C23.581 24.8262 23.794 24.781 24.0134 24.7423L24.4072 24.6842L24.7364 24.6455H25.0914H25.6013H25.9305C26.15 24.6455 26.363 24.7035 26.576 24.7358C26.9891 24.8068 27.4022 24.9166 27.7959 25.065C28.493 25.3167 29.145 25.6782 29.7323 26.13C30.6231 26.8013 31.3654 27.6469 31.914 28.6151C32.1141 28.9508 32.2884 29.3058 32.4304 29.6672C32.5531 29.9577 32.6563 30.2482 32.7402 30.5515C32.7854 30.7065 32.8242 30.8614 32.8435 31.0163V31.1777C33.0372 32.4944 32.1206 33.7208 30.8038 33.9145C30.7716 33.9209 30.7393 33.9209 30.707 33.9274C29.7646 34.0629 28.8222 33.6885 28.2219 32.9527Z" fill="#422B0D"/>
<path d="M53.6923 32.9527L53.5891 32.8236L53.3115 32.4686L52.9694 32.1007C52.8274 31.9393 52.6596 31.7844 52.4982 31.6166C52.3368 31.4488 52.1367 31.2874 51.956 31.1518C51.7882 31.0227 51.6075 30.9001 51.4138 30.8033C51.2847 30.7323 51.1427 30.6742 50.9943 30.6419C50.9491 30.6355 50.9039 30.6355 50.8587 30.6419C50.8587 30.6419 50.82 30.6419 50.8006 30.6419H50.749H50.9233H50.5682C50.536 30.6419 50.4714 30.6419 50.5682 30.6419H50.6199H50.5489C50.4004 30.6742 50.2584 30.7258 50.1229 30.8033C49.9357 30.9001 49.7549 31.0227 49.5871 31.1518C49.3935 31.2938 49.2128 31.4488 49.0449 31.6166C48.7028 31.9458 48.3995 32.262 48.2058 32.5138L47.8702 32.9011L47.7282 33.0753C46.7922 34.1146 45.2302 34.2824 44.0941 33.4691C43.3712 32.9656 43.0033 32.0942 43.1453 31.2228C43.1453 31.2228 43.1905 30.9646 43.3196 30.5064C43.5132 29.848 43.7779 29.2154 44.1264 28.628C44.6751 27.6598 45.4109 26.8142 46.3017 26.143C46.889 25.6911 47.541 25.3297 48.2381 25.0779C48.4317 25.0005 48.6318 24.9424 48.8319 24.8907C49.0449 24.8262 49.2579 24.781 49.4774 24.7423L49.8776 24.6842L50.2003 24.6455H50.5553H51.0653H51.3945C51.6139 24.6455 51.8269 24.7035 52.0399 24.7358C52.4595 24.8068 52.8661 24.9166 53.2599 25.065C53.957 25.3167 54.6089 25.6782 55.1963 26.13C56.0871 26.8013 56.8293 27.6469 57.378 28.6151C57.5781 28.9508 57.7524 29.3058 57.8944 29.6672C58.017 29.9513 58.1203 30.2417 58.2042 30.5386C58.2494 30.6935 58.2881 30.8485 58.3075 31.0034V31.1647C58.514 32.4815 57.6104 33.7144 56.2936 33.9209C56.2742 33.9209 56.2549 33.9274 56.2355 33.9274C55.2738 34.0887 54.2991 33.7144 53.6923 32.9527Z" fill="#422B0D"/>
<path d="M61.7156 45.178C61.6575 45.2167 57.7136 48.1665 50.2971 50.0771V42.7833C49.4516 42.9124 48.5866 43.0221 47.7152 43.1189V50.6581C44.7138 51.2519 41.6607 51.5811 38.6012 51.6456V43.6288H37.5813C37.0585 43.6288 36.5421 43.6288 36.0193 43.6288V51.6456C36.2968 51.6521 36.2968 51.6585 36.0193 51.6585L36.0063 51.6456C33.0178 51.594 30.0422 51.31 27.0988 50.7872V42.9188C26.221 42.8026 25.3625 42.6671 24.5169 42.5186V50.245C16.8874 48.4312 13.0533 45.533 13.0016 45.4878C12.7886 45.32 12.524 45.2232 12.2529 45.2167C12.4336 46.03 12.7047 46.8239 13.0662 47.5792C13.2921 48.0762 13.5374 48.5538 13.7956 49.0315C17.1714 50.8194 20.7796 52.1233 24.5169 52.9043V52.9172V59.2687C25.356 59.6753 26.221 60.0433 27.0988 60.3595V53.4207C30.0422 53.9113 33.0243 54.1823 36.0063 54.2275L36.0193 54.2404C36.0128 54.2404 36.0128 54.2404 36.0063 54.2404V62.1217C36.5034 62.1217 37.0068 62.1733 37.5168 62.1733H37.62H38.5882V54.2275C41.6478 54.1694 44.7009 53.8596 47.7152 53.3045V60.5403C48.5931 60.2434 49.458 59.8948 50.2971 59.5011V52.7559C54.2345 51.8522 58.0235 50.3741 61.5348 48.3731C61.5994 48.2311 61.6769 48.102 61.7414 47.96C62.2126 47.0047 62.5224 45.9784 62.6451 44.9198C62.3159 44.8811 61.9802 44.9779 61.7156 45.178Z" fill="#B3B3B3"/>
<path d="M62.5031 42.467C61.5865 40.8339 59.6178 40.111 57.8621 40.7694C51.2395 42.6994 44.3717 43.6611 37.478 43.6288C30.5779 43.6611 23.7101 42.6994 17.0875 40.7694C15.3512 40.111 13.3889 40.821 12.4853 42.4476C11.6074 44.0678 12.24 45.9461 12.9823 47.5662C13.3115 48.2956 13.6794 49.0121 14.086 49.7028C14.086 49.7028 12.7305 44.681 13.9053 43.2222C14.3055 42.6025 14.9768 42.2153 15.7126 42.1765C16.016 42.1765 16.3129 42.2282 16.6034 42.3185C23.3421 44.3001 30.3326 45.3006 37.3618 45.2877H37.5877C44.617 45.3006 51.6075 44.3001 58.3462 42.3185C58.6367 42.2282 58.9336 42.1765 59.237 42.1765C59.9728 42.2153 60.6505 42.6025 61.0507 43.2222C62.2449 44.681 60.87 49.7221 60.87 49.7221C61.2702 49.0315 61.6704 48.3214 62.006 47.5856C62.7419 45.9655 63.3809 44.0936 62.5031 42.467Z" fill="#EB8F00"/>
<defs>
<radialGradient id="paint0_radial_17_39" cx="0" cy="0" r="1" gradientUnits="userSpaceOnUse" gradientTransform="translate(37.6458 36.832) scale(36.766 36.766)">
<stop offset="0.5" stop-color="#FDE030"/>
<stop offset="0.92" stop-color="#F7C02B"/>
<stop offset="1" stop-color="#F4A223"/>
</radialGradient>
</defs>
</svg>
