<svg width="76" height="73" viewBox="0 0 76 73" fill="none" xmlns="http://www.w3.org/2000/svg">
<path d="M37.6458 72.914C19.6371 72.914 0.208344 61.6182 0.208344 36.832C0.208344 12.0458 19.6371 0.75 37.6458 0.75C47.6507 0.75 56.881 4.04192 63.723 10.0448C71.146 16.6287 75.0833 25.9235 75.0833 36.832C75.0833 47.7405 71.146 56.9708 63.723 63.5546C56.881 69.5575 47.5861 72.914 37.6458 72.914Z" fill="url(#paint0_radial_17_30)"/>
<path d="M68.5576 15.3829C71.998 20.934 73.7924 27.5436 73.7924 34.8956C73.7924 45.8041 69.855 55.0344 62.4321 61.6182C55.59 67.6211 46.2952 70.9776 36.3549 70.9776C24.6976 70.9776 12.4724 66.2334 5.25595 56.1704C12.2013 67.5695 25.2656 72.914 37.6458 72.914C47.5861 72.914 56.881 69.5575 63.723 63.5546C71.146 56.9708 75.0833 47.7405 75.0833 36.832C75.0833 28.6087 72.8435 21.3019 68.5576 15.3829Z" fill="#EB8F00"/>
<path d="M49.9421 17.9325C52.4014 17.9325 54.6283 21.5795 54.6283 27.6146C54.6283 33.6498 52.4014 37.2967 49.9421 37.2967C47.4893 37.2967 45.2625 33.6563 45.2625 27.6146C45.2625 21.573 47.4893 17.9325 49.9421 17.9325Z" fill="#422B0D"/>
<path d="M25.8143 17.9325C23.2001 17.9325 20.8183 21.5795 20.8183 27.6146C20.8183 33.6498 23.2001 37.2967 25.8143 37.2967C28.4349 37.2967 30.8167 33.6563 30.8167 27.6146C30.8167 21.573 28.4349 17.9325 25.8143 17.9325Z" fill="#422B0D"/>
<path d="M25.6723 20.3014C24.8913 19.8302 23.8779 20.0884 23.4067 20.8694C23.3938 20.8952 23.3744 20.9211 23.3615 20.9469C22.7677 21.6375 22.8387 22.6832 23.5293 23.277C23.5487 23.2964 23.568 23.3093 23.5939 23.3287C24.3684 23.7999 25.3818 23.5481 25.853 22.7736C25.8724 22.7413 25.8853 22.7155 25.9047 22.6832C26.4985 21.9861 26.421 20.9404 25.7239 20.3466C25.7046 20.3272 25.6917 20.3143 25.6723 20.3014Z" fill="#896024"/>
<path d="M50.3036 20.3014C49.5161 19.8367 48.4963 20.0949 48.0315 20.8823C48.0186 20.9017 48.0057 20.9275 47.9928 20.9469C47.4054 21.6505 47.5022 22.6897 48.2058 23.2771C48.2123 23.2835 48.2252 23.29 48.2316 23.2964C49.0062 23.7676 50.0196 23.5159 50.4908 22.7413C50.5102 22.709 50.5231 22.6832 50.5424 22.6509C51.1298 21.9474 51.033 20.9082 50.3294 20.3208C50.323 20.3143 50.3101 20.3079 50.3036 20.3014Z" fill="#896024"/>
<path d="M62.4772 42.4605C61.5736 40.8275 59.6113 40.111 57.8686 40.7694C51.246 42.6994 44.3781 43.6611 37.478 43.6288C30.5779 43.6611 23.7101 42.6994 17.0875 40.7694C15.3512 40.111 13.3889 40.821 12.4853 42.4476C11.6074 44.0678 12.24 45.9461 12.9823 47.5662C17.1262 56.6674 26.2597 62.1152 37.4264 62.1475H37.5297C48.6964 62.1475 57.8298 56.6674 61.9802 47.5662C62.7161 45.9332 63.3551 44.0807 62.4772 42.4605Z" fill="#422B0D"/>
<path d="M47.8121 59.5785C47.5732 59.3591 47.3279 59.159 47.0827 58.933C44.4491 56.6158 41.041 55.37 37.5296 55.441C33.915 55.3829 30.3972 56.5835 27.5764 58.8427C27.3312 59.0428 27.073 59.2364 26.8341 59.4881C26.5953 59.7399 26.4662 59.9206 26.3113 60.1336C29.8614 61.5214 33.6439 62.2314 37.4586 62.2121H37.5619C41.2153 62.2121 44.8364 61.5601 48.2574 60.2756C48.1283 60.0303 47.9799 59.798 47.8121 59.5785Z" fill="#ED7770"/>
<path d="M57.8686 40.7694C51.246 42.6994 44.3781 43.6611 37.478 43.6288C30.5779 43.6611 23.7101 42.6994 17.0875 40.7694C15.3512 40.111 13.3889 40.821 12.4853 42.4476C12.3562 42.6929 12.2529 42.9511 12.1884 43.2157C12.4014 43.3255 12.6466 43.4352 12.9371 43.5514C20.7086 47.4436 29.2999 49.4188 37.988 49.3155C46.321 49.4123 54.5573 47.5985 62.0835 44.0226C62.3869 43.8935 62.6386 43.7709 62.8645 43.6547C62.8129 43.2351 62.6773 42.822 62.4772 42.4476C61.5736 40.821 59.6113 40.1046 57.8686 40.7694Z" fill="white"/>
<path d="M62.5031 42.467C61.5865 40.8339 59.6178 40.111 57.8621 40.7694C51.2395 42.6994 44.3717 43.6611 37.478 43.6288C30.5779 43.6611 23.7101 42.6994 17.0875 40.7694C15.3512 40.111 13.3889 40.821 12.4853 42.4476C11.6074 44.0678 12.24 45.9461 12.9823 47.5662C13.3115 48.2956 13.6794 49.0121 14.086 49.7028C14.086 49.7028 12.7305 44.681 13.9053 43.2222C14.3055 42.6025 14.9768 42.2153 15.7126 42.1765C16.016 42.1765 16.3129 42.2282 16.6034 42.3185C23.3421 44.3001 30.3326 45.3006 37.3618 45.2877H37.5877C44.617 45.3006 51.6075 44.3001 58.3462 42.3185C58.6367 42.2282 58.9336 42.1765 59.237 42.1765C59.9728 42.2153 60.6505 42.6025 61.0507 43.2222C62.2449 44.681 60.87 49.7221 60.87 49.7221C61.2702 49.0315 61.6704 48.3214 62.006 47.5856C62.7419 45.9655 63.3809 44.0936 62.5031 42.467Z" fill="#EB8F00"/>
<defs>
<radialGradient id="paint0_radial_17_30" cx="0" cy="0" r="1" gradientUnits="userSpaceOnUse" gradientTransform="translate(37.6458 36.832) scale(36.766 36.766)">
<stop offset="0.5" stop-color="#FDE030"/>
<stop offset="0.92" stop-color="#F7C02B"/>
<stop offset="1" stop-color="#F4A223"/>
</radialGradient>
</defs>
</svg>
